<?xml version="1.0" encoding="utf-8"?>
<!-- Generator: Adobe Illustrator 26.0.1, SVG Export Plug-In . SVG Version: 6.00 Build 0)  -->
<svg version="1.1" id="Layer_1" xmlns="http://www.w3.org/2000/svg" xmlns:xlink="http://www.w3.org/1999/xlink" x="0px" y="0px"
	 viewBox="0 0 32 32" style="enable-background:new 0 0 32 32;" xml:space="preserve">
<style type="text/css">
	.st0{fill:#1967CE;stroke:#1967CE;stroke-width:2;stroke-linecap:round;stroke-linejoin:round;}
	.st1{fill:none;stroke:#1967CE;stroke-width:2;stroke-linecap:round;stroke-linejoin:round;}
</style>
<path class="st0" d="M12.9,28.4c0.7,0,1.3-0.6,1.3-1.3c0-0.7-0.6-1.3-1.3-1.3s-1.3,0.6-1.3,1.3C11.6,27.8,12.2,28.4,12.9,28.4z"/>
<path class="st0" d="M25.3,28.4c0.7,0,1.3-0.6,1.3-1.3c0-0.7-0.6-1.3-1.3-1.3c-0.7,0-1.3,0.6-1.3,1.3C24,27.8,24.6,28.4,25.3,28.4z"
	/>
<path class="st1" d="M2.7,2.7h4.8l3.2,15.4c0.1,0.5,0.4,1,0.9,1.3c0.4,0.3,1,0.5,1.6,0.5H25c0.6,0,1.1-0.2,1.6-0.5
	c0.4-0.3,0.7-0.8,0.9-1.3l1.9-9.7H8.7"/>
</svg>
